{"title":"The.Quatermass.Xperiment.1955.HDTV.720p.mkv","uid":9343447,"size":2626604229,"categoryP":"video","categoryS":"hd___movies","magnet":"?xt=urn:btih:18e9602d9f0fd725eb13d098a634391fed2dc827&amp;dn=The.Quatermass.Xperiment.1955.HDTV.720p.mkv&amp;tr=udp%3A%2F%2Ftracker.openbittorrent.com%3A80&amp;tr=udp%3A%2F%2Fopen.demonii.com%3A1337&amp;tr=udp%3A%2F%2Ftracker.coppersurfer.tk%3A6969&amp;tr=udp%3A%2F%2Fexodus.desync.com%3A6969","seeders":1,"leechers":1,"uploader":"rpessoa","files":1,"time":1386982822,"description":"A missile, launched by the team led by Prof. Quatermass, lands in the English countryside. Of the three members of the crew, two have mysteriously disappeared. The third one, barely alive, undergoes an horrible metamorphosis turning into a monstrous &quot;thing&quot;. When he breaks out and, chased in vain by inspector Lomax, starts killing humans and animals to feed his transformation, Quatermass realizes that this is the way chosen by an alien form of life to invade the Earth. Written by Stefano Cristiani &lt;&lt;a class=&quot;__cf_email__&quot; href=&quot;/cdn-cgi/l/email-protection&quot; data-cfemail=&quot;0566776c76716c646b6c456476717775612b75612b647671776a2b6c71&quot;&gt;[email&amp;#160;protected]&lt;/a&gt;&lt;script data-cfhash='f9e31' type=&quot;text/javascript&quot;&gt;\n/* &lt;![CDATA[ */!function(){try{var t=&quot;currentScript&quot;in document?document.currentScript:function(){for(var t=document.getElementsByTagName(&quot;script&quot;),e=t.length;e--;)if(t[e].getAttribute(&quot;data-cfhash&quot;))return t[e]}();if(t&amp;&amp;t.previousSibling){var e,r,n,i,c=t.previousSibling,a=c.getAttribute(&quot;data-cfemail&quot;);if(a){for(e=&quot;&quot;,r=parseInt(a.substr(0,2),16),n=2;a.length-n;n+=2)i=parseInt(a.substr(n,2),16)^r,e+=String.fromCharCode(i);e=document.createTextNode(e),c.parentNode.replaceChild(e,c)}t.parentNode.removeChild(t);}}catch(u){}}()/* ]]&gt; */&lt;/script&gt;&gt;\n &lt;a href=&quot;\nhttp://www.imdb.com/title/tt0049646/&quot; rel=&quot;nofollow&quot; target=&quot;_NEW&quot;&gt;\nhttp://www.imdb.com/title/tt0049646/&lt;/a&gt;\n\nGeneral\nUnique ID                        : 249780188287694376552506648838754283281 (0xBBE9EA1705C19F8B90B649F8B4702F11)\nComplete name                    : /home/iv10/home/data/The.Quatermass.Xperiment.1955.HDTV.720p.mkv\nFormat                           : Matroska\nFormat version                   : Version 4 / Version 2\nFile size                        : 2.45 GiB\nDuration                         : 1h 18mn\nOverall bit rate                 : 4 467 Kbps\nEncoded date                     : UTC 2013-12-10 10:45:49\nWriting application              : mkvmerge v6.3.0 ('You can't stop me!') built on Jun 28 2013 20:09:41\nWriting library                  : libebml v1.3.0 + libmatroska v1.4.0\n\nVideo\nID                               : 1\nFormat                           : AVC\nFormat/Info                      : Advanced Video Codec\nFormat profile                   : &lt;a class=&quot;__cf_email__&quot; href=&quot;/cdn-cgi/l/email-protection&quot; data-cfemail=&quot;88c0e1efe0c8c4bca6b8&quot;&gt;[email&amp;#160;protected]&lt;/a&gt;&lt;script data-cfhash='f9e31' type=&quot;text/javascript&quot;&gt;\n/* &lt;![CDATA[ */!function(){try{var t=&quot;currentScript&quot;in document?document.currentScript:function(){for(var t=document.getElementsByTagName(&quot;script&quot;),e=t.length;e--;)if(t[e].getAttribute(&quot;data-cfhash&quot;))return t[e]}();if(t&amp;&amp;t.previousSibling){var e,r,n,i,c=t.previousSibling,a=c.getAttribute(&quot;data-cfemail&quot;);if(a){for(e=&quot;&quot;,r=parseInt(a.substr(0,2),16),n=2;a.length-n;n+=2)i=parseInt(a.substr(n,2),16)^r,e+=String.fromCharCode(i);e=document.createTextNode(e),c.parentNode.replaceChild(e,c)}t.parentNode.removeChild(t);}}catch(u){}}()/* ]]&gt; */&lt;/script&gt;\nFormat settings, CABAC           : Yes\nFormat settings, ReFrames        : 8 frames\nCodec ID                         : V_MPEG4/ISO/AVC\nDuration                         : 1h 18mn\nBit rate                         : 4 274 Kbps\nWidth                            : 960 pixels\nHeight                           : 720 pixels\nDisplay aspect ratio             : 4:3\nFrame rate                       : 25.000 fps\nColor space                      : YUV\nChroma subsampling               : 4:2:0\nBit depth                        : 8 bits\nScan type                        : Progressive\nBits/(Pixel*Frame)               : 0.247\nStream size                      : 2.29 GiB (94%)\nWriting library                  : x264 core 130 r2273 b3065e6\nEncoding settings                : cabac=1 / ref=8 / deblock=1:-3:-3 / analyse=0x3:0x113 / me=umh / subme=11 / psy=1 / psy_rd=1.10:0.00 / mixed_ref=1 / me_range=24 / chroma_me=1 / trellis=2 / 8x8dct=1 / cqm=0 / deadzone=21,11 / fast_pskip=0 / chroma_qp_offset=-2 / threads=12 / lookahead_threads=2 / sliced_threads=0 / nr=0 / decimate=1 / interlaced=0 / bluray_compat=0 / constrained_intra=0 / bframes=8 / b_pyramid=2 / b_adapt=2 / b_bias=0 / direct=3 / weightb=1 / open_gop=0 / weightp=2 / keyint=250 / keyint_min=25 / scenecut=40 / intra_refresh=0 / rc_lookahead=60 / rc=2pass / mbtree=1 / bitrate=4274 / ratetol=1.0 / qcomp=0.60 / qpmin=0 / qpmax=69 / qpstep=4 / cplxblur=20.0 / qblur=0.5 / ip_ratio=1.40 / aq=1:0.90\nLanguage                         : English\nColor primaries                  : BT.709-5, BT.1361, IEC 61966-2-4, SMPTE RP177\nTransfer characteristics         : BT.709-5, BT.1361\nMatrix coefficients              : BT.709-5, BT.1361, IEC 61966-2-4 709, SMPTE RP177\n\nAudio\nID                               : 2\nFormat                           : AC-3\nFormat/Info                      : Audio Coding 3\nMode extension                   : CM (complete main)\nCodec ID                         : A_AC3\nDuration                         : 1h 18mn\nBit rate mode                    : Constant\nBit rate                         : 192 Kbps\nChannel(s)                       : 2 channels\nChannel positions                : Front: L R\nSampling rate                    : 48.0 KHz\nBit depth                        : 16 bits\nCompression mode                 : Lossy\nStream size                      : 108 MiB (4%)\nLanguage                         : English\n\nMy rip from raw TS file upped at CG by SammyD, whom I thank.","torrent":{"xt":"urn:btih:18e9602d9f0fd725eb13d098a634391fed2dc827","amp;dn":"The.Quatermass.Xperiment.1955.HDTV.720p.mkv","amp;tr":["udp%3A%2F%2Ftracker.openbittorrent.com%3A80","udp%3A%2F%2Fopen.demonii.com%3A1337","udp%3A%2F%2Ftracker.coppersurfer.tk%3A6969","udp%3A%2F%2Fexodus.desync.com%3A6969"],"infoHash":"18e9602d9f0fd725eb13d098a634391fed2dc827","infoHashBuffer":{"type":"Buffer","data":[24,233,96,45,159,15,215,37,235,19,208,152,166,52,57,31,237,45,200,39]},"announce":[],"urlList":[]}}